<svg xmlns="http://www.w3.org/2000/svg" version="1.1" xmlns:xlink="http://www.w3.org/1999/xlink" xmlns:svgjs="http://svgjs.dev/svgjs" width="1500" height="625" viewBox="0 0 1500 625"><g transform="matrix(1,0,0,1,-0.9090909090909918,-0.2998697467724014)"><svg viewBox="0 0 396 165" data-background-color="#ffffff" preserveAspectRatio="xMidYMid meet" height="625" width="1500" xmlns="http://www.w3.org/2000/svg" xmlns:xlink="http://www.w3.org/1999/xlink"><g id="tight-bounds" transform="matrix(1,0,0,1,0.2400000000000091,0.07916561314792148)"><svg viewBox="0 0 395.52 164.84166877370416" height="164.84166877370416" width="395.52"><g><svg viewBox="0 0 395.52 164.84166877370416" height="164.84166877370416" width="395.52"><g><svg viewBox="0 0 395.52 164.84166877370416" height="164.84166877370416" width="395.52"><g id="textblocktransform"><svg viewBox="0 0 395.52 164.84166877370416" height="164.84166877370416" width="395.52" id="textblock"><g><svg viewBox="0 0 395.52 164.84166877370416" height="164.84166877370416" width="395.52"><g transform="matrix(1,0,0,1,0,0)"><svg width="395.52" viewBox="1.65 -41.45 118.64 49.45" height="164.84166877370416" data-palette-color="#000000"><g class="wordmark-text-0" data-fill-palette-color="primary" id="text-0"><path d="M26.25-5.35L26.25-12.65 15.75-12.7 13.5-4.25Q12.75-1.4 12.05 0.45 11.35 2.3 10.2 4.2L10.2 4.2Q7.8 8 3.1 8L3.1 8 3.1 7.4Q6.85 7.4 8.95 4.88 11.05 2.35 12.3-2.05L12.3-2.05 12.8-3.1 12.7-3.15Q11 0.65 7.3 0.65L7.3 0.65Q4.85 0.65 3.25-1 1.65-2.65 1.65-5.15L1.65-5.15Q1.65-13.3 15.25-13.3L15.25-13.3 20.25-32.2 18.7-32.25Q18.5-32.25 18.3-32.25L18.3-32.25Q15.55-32.25 13.85-30.98 12.15-29.7 12.15-27.6L12.15-27.6Q12.15-26.6 12.45-25.95L12.45-25.95 12.05-25.65Q11.5-26.25 11.5-27.73 11.5-29.2 12.55-30.53 13.6-31.85 15.25-32.3L15.25-32.3Q15.7-32.4 16.4-32.5L16.4-32.5 16.4-32.6 15.25-32.55Q10.45-33.15 7.45-35.27 4.45-37.4 4.45-41.4L4.45-41.4 5.05-41.45Q5.05-39.15 6.2-37.48 7.35-35.8 9.35-34.85L9.35-34.85Q13.15-33.05 18.35-32.85L18.35-32.85 26.95-32.45 26.95-5.35Q26.95-2.35 25.85-0.88 24.75 0.6 22.1 0.6L22.1 0.6Q20.75 0.6 19.85 0.3L19.85 0.3 19.95-0.2Q21.05 0.05 21.95 0.05L21.95 0.05Q24.45 0.05 25.35-1.25 26.25-2.55 26.25-5.35L26.25-5.35ZM15.9-13.3L18.3-13.3 26.25-13.25 26.25-31.9 20.9-32.15 15.9-13.3ZM2.35-5.15L2.35-5.15Q2.35-2.95 3.75-1.45 5.15 0.05 7.3 0.05L7.3 0.05Q10.75 0.05 12.4-3.6L12.4-3.6Q13.3-5.65 13.95-8.4L13.95-8.4 15.1-12.7Q2.35-12.6 2.35-5.15ZM28.25-5.35L28.25-5.35 28.25-30.25Q28.25-33.25 29.35-34.73 30.45-36.2 33.1-36.2L33.1-36.2Q34.45-36.2 35.35-35.9L35.35-35.9 35.25-35.4Q34.15-35.65 33.25-35.65L33.25-35.65Q30.75-35.65 29.85-34.35 28.95-33.05 28.95-30.25L28.95-30.25 28.95-5.35Q28.95-2.55 29.85-1.25 30.75 0.05 33.25 0.05L33.25 0.05Q34.15 0.05 35.25-0.2L35.25-0.2 35.35 0.3Q34.45 0.6 33.1 0.6L33.1 0.6Q30.45 0.6 29.35-0.88 28.25-2.35 28.25-5.35ZM44.35-5.35L44.35-5.35 44.35-31.9 42.8-32Q42.6-32 42.4-32L42.4-32Q40-32 38.3-30.85 36.6-29.7 36.6-27.35L36.6-27.35Q36.6-26.4 36.9-25.7L36.9-25.7 36.5-25.4Q35.95-26 35.95-27.48 35.95-28.95 37-30.3 38.05-31.65 39.7-32.1L39.7-32.1Q39.75-32.1 40.85-32.25L40.85-32.25 40.85-32.35 39.7-32.3Q34.9-32.9 31.9-35.02 28.9-37.15 28.9-41.15L28.9-41.15 29.5-41.2Q29.5-38.9 30.65-37.23 31.8-35.55 33.8-34.6L33.8-34.6Q37.5-32.9 42.8-32.6L42.8-32.6 45.05-32.45 45.05-5.35Q45.05-2.35 43.95-0.88 42.85 0.6 40.2 0.6L40.2 0.6Q38.85 0.6 37.95 0.3L37.95 0.3 38.05-0.2Q39.15 0.05 40.05 0.05L40.05 0.05Q42.55 0.05 43.45-1.25 44.35-2.55 44.35-5.35ZM47.05-30.25L47.05-30.25 47.05-2.1Q51.25 0.05 54.72 0.05 58.2 0.05 59.57-1.05 60.95-2.15 60.95-4.95L60.95-4.95Q60.95-5.85 60.7-6.6L60.7-6.6 61.25-6.85Q61.6-6 61.6-4.95L61.6-4.95Q61.6-1.95 60.05-0.65 58.5 0.65 55.3 0.65L55.3 0.65Q50.65 0.65 46.35-1.7L46.35-1.7 46.35-30.25Q46.35-33.25 47.45-34.73 48.55-36.2 51.2-36.2L51.2-36.2Q52.55-36.2 53.45-35.9L53.45-35.9 53.35-35.4Q52.25-35.65 51.35-35.65L51.35-35.65Q48.85-35.65 47.95-34.35 47.05-33.05 47.05-30.25ZM78.25-32.25Q79.9-31.8 80.95-30.48 82-29.15 82-27.68 82-26.2 81.45-25.6L81.45-25.6 81.05-25.9Q81.34-26.6 81.34-27.55L81.34-27.55Q81.34-29.65 79.67-30.93 78-32.2 75.4-32.2L75.4-32.2Q75.09-32.2 74.8-32.2L74.8-32.2 68.5-31.85 68.5-17 74.7-17Q78.3-17 78.3-19.05L78.3-19.05Q78.3-19.6 78.05-20.1L78.05-20.1 78.55-20.35Q78.95-19.85 78.95-18.98 78.95-18.1 78.27-17.45 77.59-16.8 76.65-16.65L76.65-16.65Q78.59-16 79-12.95L79-12.95 78.4-12.8Q78.05-14.75 77.25-15.58 76.45-16.4 74.65-16.4L74.65-16.4 68.5-16.4 68.5-2.1Q72.7 0.05 76.17 0.05 79.65 0.05 81.02-1.05 82.4-2.15 82.4-4.95L82.4-4.95Q82.4-5.85 82.15-6.6L82.15-6.6 82.7-6.85Q83.05-6 83.05-4.95L83.05-4.95Q83.05-1.95 81.5-0.65 79.95 0.65 76.75 0.65L76.75 0.65Q72.09 0.65 67.8-1.7L67.8-1.7 67.8-32.4 75.15-32.8Q80.34-33 84.15-34.8L84.15-34.8Q86.15-35.75 87.3-37.43 88.45-39.1 88.45-41.4L88.45-41.4 89.05-41.35Q89.05-37.35 86.05-35.23 83.05-33.1 78.25-32.5L78.25-32.5Q77.9-32.5 77.09-32.55L77.09-32.55 77.09-32.45Q77.8-32.35 78.25-32.25L78.25-32.25ZM66.5-30.25L66.5-30.25 66.5-5.35Q66.5-2.35 65.39-0.88 64.3 0.6 61.65 0.6L61.65 0.6Q60.3 0.6 59.4 0.3L59.4 0.3 59.5-0.2Q60.59 0.05 61.5 0.05L61.5 0.05Q64 0.05 64.89-1.25 65.8-2.55 65.8-5.35L65.8-5.35 65.8-30.25Q65.8-33.05 64.89-34.35 64-35.65 61.5-35.65L61.5-35.65Q60.59-35.65 59.5-35.4L59.5-35.4 59.4-35.9Q60.3-36.2 61.65-36.2L61.65-36.2Q64.3-36.2 65.39-34.73 66.5-33.25 66.5-30.25ZM107.89-21.2Q109.19-23.4 110.54-26.38 111.89-29.35 111.89-30.3 111.89-31.25 110.82-31.93 109.74-32.6 108.34-32.6 106.94-32.6 105.84-32.35L105.84-32.35 105.74-32.8Q106.64-33.15 107.99-33.15L107.99-33.15Q111.84-33.15 112.39-30.65L112.39-30.65Q113.29-33.15 116.94-33.15L116.94-33.15Q118.29-33.15 119.19-32.8L119.19-32.8 119.09-32.35Q117.99-32.6 117.09-32.6L117.09-32.6Q114.44-32.6 113.39-31.35L113.39-31.35Q113.04-30.95 112.59-29.85L112.59-29.85Q110.64-24.6 108.34-20.75L108.34-20.75 105.89-16.6 109.59-8.2Q111.49-3.9 113.42-1.85 115.34 0.2 118.09 0.2L118.09 0.2Q118.99 0.2 120.09-0.05L120.09-0.05 120.29 0.45Q119.39 0.75 117.79 0.75 116.19 0.75 114.74 0L114.74 0Q111.54 0 109.97-1.8 108.39-3.6 106.24-8.6L106.24-8.6 103.39-15.15 101.19-11.35Q99.89-9.15 98.54-6.18 97.19-3.2 97.19-2.25 97.19-1.3 98.27-0.63 99.34 0.05 100.74 0.05 102.14 0.05 103.24-0.2L103.24-0.2 103.34 0.25Q102.44 0.6 101.09 0.6L101.09 0.6Q97.24 0.6 96.69-1.9L96.69-1.9Q95.79 0.6 92.14 0.6L92.14 0.6Q90.79 0.6 89.89 0.25L89.89 0.25 89.99-0.2Q91.09 0.05 91.99 0.05L91.99 0.05Q94.64 0.05 95.69-1.2L95.69-1.2Q96.04-1.6 96.49-2.7L96.49-2.7Q98.44-7.95 100.74-11.8L100.74-11.8 103.09-15.8 99.39-24.35Q97.54-28.65 95.59-30.68 93.64-32.7 91.24-32.7 88.84-32.7 87.64-31.48 86.44-30.25 86.44-28.38 86.44-26.5 87.29-25.4 88.14-24.3 89.59-24.3 91.04-24.3 91.87-25.15 92.69-26 92.69-27.4L92.69-27.4Q92.69-27.9 92.54-28.4L92.54-28.4 93.09-28.6Q93.34-28 93.34-27.4L93.34-27.4Q93.34-25.75 92.34-24.73 91.34-23.7 89.62-23.7 87.89-23.7 86.82-24.98 85.74-26.25 85.74-28.38 85.74-30.5 87.17-31.9 88.59-33.3 90.94-33.3L90.94-33.3Q94.19-33.3 96.24-30.95 98.29-28.6 100.09-24.45L100.09-24.45 106.94-8.7Q107.99-6.35 108.52-5.25 109.04-4.15 109.89-2.93 110.74-1.7 111.67-1.2 112.59-0.7 113.84-0.6L113.84-0.6Q111.39-2.4 108.89-8.1L108.89-8.1 101.49-25.1Q99.04-30.7 96.79-32.3L96.79-32.3 97.19-32.75Q99.54-31.3 101.94-25.8L101.94-25.8 105.64-17.25 107.89-21.2Z" fill="#000000" data-fill-palette-color="primary"></path></g></svg></g></svg></g></svg></g></svg></g><g></g></svg></g><defs></defs></svg><rect width="395.52" height="164.84166877370416" fill="none" stroke="none" visibility="hidden"></rect></g></svg></g></svg>